<svg id="visual" viewBox="0 0 900 450" width="900" height="450" xmlns="http://www.w3.org/2000/svg" xmlns:xlink="http://www.w3.org/1999/xlink" version="1.1"><g stroke-width="0.1" stroke-linejoin="bevel"><path d="M427 231L405 241L412 277Z" fill="#2e747f" stroke="#FFFFFF"></path><path d="M405 241L396 271L412 277Z" fill="#5db9b1" stroke="#FFFFFF"></path><path d="M412 277L455 231L427 231Z" fill="#73d0be" stroke="#FFFFFF"></path><path d="M389 195L383 248L405 241Z" fill="#1b4958" stroke="#FFFFFF"></path><path d="M405 241L383 248L396 271Z" fill="#1b4958" stroke="#FFFFFF"></path><path d="M383 248L387 279L396 271Z" fill="#0c2230" stroke="#FFFFFF"></path><path d="M396 271L387 279L412 277Z" fill="#00101c" stroke="#FFFFFF"></path><path d="M396 317L408 321L412 277Z" fill="#133544" stroke="#FFFFFF"></path><path d="M412 277L474 334L455 231Z" fill="#2e747f" stroke="#FFFFFF"></path><path d="M387 279L396 317L412 277Z" fill="#0c2230" stroke="#FFFFFF"></path><path d="M393 168L389 195L432 160Z" fill="#1b4958" stroke="#FFFFFF"></path><path d="M427 231L389 195L405 241Z" fill="#4ba1a1" stroke="#FFFFFF"></path><path d="M323 234L354 275L383 248Z" fill="#0c2230" stroke="#FFFFFF"></path><path d="M383 248L354 275L387 279Z" fill="#00101c" stroke="#FFFFFF"></path><path d="M387 279L354 275L396 317Z" fill="#245e6c" stroke="#FFFFFF"></path><path d="M389 195L352 210L383 248Z" fill="#1b4958" stroke="#FFFFFF"></path><path d="M408 321L474 334L412 277Z" fill="#0c2230" stroke="#FFFFFF"></path><path d="M432 160L389 195L427 231Z" fill="#4ba1a1" stroke="#FFFFFF"></path><path d="M389 195L393 168L352 210Z" fill="#1b4958" stroke="#FFFFFF"></path><path d="M455 231L432 160L427 231Z" fill="#133544" stroke="#FFFFFF"></path><path d="M474 334L521 272L455 231Z" fill="#73d0be" stroke="#FFFFFF"></path><path d="M455 231L490 181L432 160Z" fill="#00101c" stroke="#FFFFFF"></path><path d="M306 283L335 297L354 275Z" fill="#4ba1a1" stroke="#FFFFFF"></path><path d="M354 275L335 297L396 317Z" fill="#133544" stroke="#FFFFFF"></path><path d="M396 317L410 360L408 321Z" fill="#0c2230" stroke="#FFFFFF"></path><path d="M521 272L490 181L455 231Z" fill="#73d0be" stroke="#FFFFFF"></path><path d="M329 197L323 234L352 210Z" fill="#8ce8cb" stroke="#FFFFFF"></path><path d="M352 210L323 234L383 248Z" fill="#00101c" stroke="#FFFFFF"></path><path d="M391 367L410 360L396 317Z" fill="#3b8a91" stroke="#FFFFFF"></path><path d="M408 321L410 360L474 334Z" fill="#245e6c" stroke="#FFFFFF"></path><path d="M335 297L364 345L396 317Z" fill="#8ce8cb" stroke="#FFFFFF"></path><path d="M393 168L329 197L352 210Z" fill="#00101c" stroke="#FFFFFF"></path><path d="M490 181L452 143L432 160Z" fill="#2e747f" stroke="#FFFFFF"></path><path d="M432 160L404 135L393 168Z" fill="#3b8a91" stroke="#FFFFFF"></path><path d="M364 345L391 367L396 317Z" fill="#00101c" stroke="#FFFFFF"></path><path d="M265 269L306 283L323 234Z" fill="#0c2230" stroke="#FFFFFF"></path><path d="M323 234L306 283L354 275Z" fill="#00101c" stroke="#FFFFFF"></path><path d="M335 297L308 367L364 345Z" fill="#8ce8cb" stroke="#FFFFFF"></path><path d="M452 143L404 135L432 160Z" fill="#5db9b1" stroke="#FFFFFF"></path><path d="M393 168L329 75L329 197Z" fill="#00101c" stroke="#FFFFFF"></path><path d="M452 143L405 128L404 135Z" fill="#73d0be" stroke="#FFFFFF"></path><path d="M404 135L329 75L393 168Z" fill="#0c2230" stroke="#FFFFFF"></path><path d="M521 272L538 191L490 181Z" fill="#8ce8cb" stroke="#FFFFFF"></path><path d="M490 181L509 93L452 143Z" fill="#133544" stroke="#FFFFFF"></path><path d="M391 367L445 388L410 360Z" fill="#133544" stroke="#FFFFFF"></path><path d="M410 360L445 388L474 334Z" fill="#1b4958" stroke="#FFFFFF"></path><path d="M474 334L527 345L521 272Z" fill="#5db9b1" stroke="#FFFFFF"></path><path d="M475 400L527 345L474 334Z" fill="#73d0be" stroke="#FFFFFF"></path><path d="M579 260L556 190L538 191Z" fill="#245e6c" stroke="#FFFFFF"></path><path d="M286 195L288 210L329 197Z" fill="#133544" stroke="#FFFFFF"></path><path d="M329 197L288 210L323 234Z" fill="#00101c" stroke="#FFFFFF"></path><path d="M559 313L567 284L521 272Z" fill="#0c2230" stroke="#FFFFFF"></path><path d="M527 345L559 313L521 272Z" fill="#3b8a91" stroke="#FFFFFF"></path><path d="M579 260L538 191L521 272Z" fill="#1b4958" stroke="#FFFFFF"></path><path d="M538 191L542 129L490 181Z" fill="#5db9b1" stroke="#FFFFFF"></path><path d="M257 179L286 195L250 136Z" fill="#00101c" stroke="#FFFFFF"></path><path d="M440 421L475 400L445 388Z" fill="#1b4958" stroke="#FFFFFF"></path><path d="M445 388L475 400L474 334Z" fill="#00101c" stroke="#FFFFFF"></path><path d="M527 345L569 376L559 313Z" fill="#8ce8cb" stroke="#FFFFFF"></path><path d="M602 306L579 260L567 284Z" fill="#3b8a91" stroke="#FFFFFF"></path><path d="M567 284L579 260L521 272Z" fill="#133544" stroke="#FFFFFF"></path><path d="M288 210L265 269L323 234Z" fill="#0c2230" stroke="#FFFFFF"></path><path d="M306 283L308 367L335 297Z" fill="#8ce8cb" stroke="#FFFFFF"></path><path d="M364 345L308 367L391 367Z" fill="#4ba1a1" stroke="#FFFFFF"></path><path d="M248 232L265 269L288 210Z" fill="#73d0be" stroke="#FFFFFF"></path><path d="M257 334L308 367L306 283Z" fill="#3b8a91" stroke="#FFFFFF"></path><path d="M391 367L440 421L445 388Z" fill="#8ce8cb" stroke="#FFFFFF"></path><path d="M396 450L440 421L391 367Z" fill="#73d0be" stroke="#FFFFFF"></path><path d="M553 135L538 191L556 190Z" fill="#5db9b1" stroke="#FFFFFF"></path><path d="M553 135L542 129L538 191Z" fill="#1b4958" stroke="#FFFFFF"></path><path d="M452 143L480 82L405 128Z" fill="#133544" stroke="#FFFFFF"></path><path d="M587 103L553 135L615 132Z" fill="#2e747f" stroke="#FFFFFF"></path><path d="M250 193L248 232L288 210Z" fill="#245e6c" stroke="#FFFFFF"></path><path d="M265 269L257 334L306 283Z" fill="#0c2230" stroke="#FFFFFF"></path><path d="M567 414L553 384L546 450Z" fill="#8ce8cb" stroke="#FFFFFF"></path><path d="M475 400L553 384L527 345Z" fill="#4ba1a1" stroke="#FFFFFF"></path><path d="M559 313L602 306L567 284Z" fill="#245e6c" stroke="#FFFFFF"></path><path d="M489 85L452 143L509 93Z" fill="#8ce8cb" stroke="#FFFFFF"></path><path d="M489 85L480 82L452 143Z" fill="#73d0be" stroke="#FFFFFF"></path><path d="M245 168L257 179L250 136Z" fill="#5db9b1" stroke="#FFFFFF"></path><path d="M509 93L490 181L542 129Z" fill="#133544" stroke="#FFFFFF"></path><path d="M587 103L509 93L542 129Z" fill="#73d0be" stroke="#FFFFFF"></path><path d="M607 339L602 306L559 313Z" fill="#4ba1a1" stroke="#FFFFFF"></path><path d="M579 260L630 259L556 190Z" fill="#0c2230" stroke="#FFFFFF"></path><path d="M286 195L329 197L250 136Z" fill="#245e6c" stroke="#FFFFFF"></path><path d="M286 195L250 193L288 210Z" fill="#245e6c" stroke="#FFFFFF"></path><path d="M240 336L257 334L212 305Z" fill="#0c2230" stroke="#FFFFFF"></path><path d="M204 234L240 245L248 232Z" fill="#73d0be" stroke="#FFFFFF"></path><path d="M248 232L240 245L265 269Z" fill="#1b4958" stroke="#FFFFFF"></path><path d="M257 179L250 193L286 195Z" fill="#133544" stroke="#FFFFFF"></path><path d="M553 384L569 376L527 345Z" fill="#0c2230" stroke="#FFFFFF"></path><path d="M295 404L391 367L308 367Z" fill="#4ba1a1" stroke="#FFFFFF"></path><path d="M295 404L396 450L391 367Z" fill="#245e6c" stroke="#FFFFFF"></path><path d="M440 421L471 450L475 400Z" fill="#2e747f" stroke="#FFFFFF"></path><path d="M253 374L295 404L308 367Z" fill="#245e6c" stroke="#FFFFFF"></path><path d="M445 477L471 450L440 421Z" fill="#0c2230" stroke="#FFFFFF"></path><path d="M567 414L584 379L569 376Z" fill="#3b8a91" stroke="#FFFFFF"></path><path d="M569 376L607 339L559 313Z" fill="#0c2230" stroke="#FFFFFF"></path><path d="M329 75L404 135L405 128Z" fill="#8ce8cb" stroke="#FFFFFF"></path><path d="M257 179L245 168L250 193Z" fill="#73d0be" stroke="#FFFFFF"></path><path d="M250 193L204 234L248 232Z" fill="#2e747f" stroke="#FFFFFF"></path><path d="M567 414L569 376L553 384Z" fill="#133544" stroke="#FFFFFF"></path><path d="M569 376L584 379L607 339Z" fill="#8ce8cb" stroke="#FFFFFF"></path><path d="M212 305L257 334L265 269Z" fill="#00101c" stroke="#FFFFFF"></path><path d="M257 334L253 374L308 367Z" fill="#0c2230" stroke="#FFFFFF"></path><path d="M422 33L329 75L405 128Z" fill="#133544" stroke="#FFFFFF"></path><path d="M622 318L630 259L602 306Z" fill="#00101c" stroke="#FFFFFF"></path><path d="M602 306L630 259L579 260Z" fill="#00101c" stroke="#FFFFFF"></path><path d="M607 339L622 318L602 306Z" fill="#1b4958" stroke="#FFFFFF"></path><path d="M635 321L622 318L607 339Z" fill="#3b8a91" stroke="#FFFFFF"></path><path d="M231 353L253 374L257 334Z" fill="#8ce8cb" stroke="#FFFFFF"></path><path d="M250 136L235 165L245 168Z" fill="#2e747f" stroke="#FFFFFF"></path><path d="M245 168L235 165L250 193Z" fill="#1b4958" stroke="#FFFFFF"></path><path d="M205 333L231 353L240 336Z" fill="#5db9b1" stroke="#FFFFFF"></path><path d="M329 75L250 136L329 197Z" fill="#3b8a91" stroke="#FFFFFF"></path><path d="M546 450L553 384L475 400Z" fill="#4ba1a1" stroke="#FFFFFF"></path><path d="M655 335L635 321L607 339Z" fill="#8ce8cb" stroke="#FFFFFF"></path><path d="M212 305L265 269L240 245Z" fill="#1b4958" stroke="#FFFFFF"></path><path d="M240 336L231 353L257 334Z" fill="#73d0be" stroke="#FFFFFF"></path><path d="M324 26L322 63L329 75Z" fill="#73d0be" stroke="#FFFFFF"></path><path d="M329 75L313 65L250 136Z" fill="#245e6c" stroke="#FFFFFF"></path><path d="M185 267L212 305L240 245Z" fill="#5db9b1" stroke="#FFFFFF"></path><path d="M655 335L607 339L584 379Z" fill="#0c2230" stroke="#FFFFFF"></path><path d="M622 318L635 321L630 259Z" fill="#5db9b1" stroke="#FFFFFF"></path><path d="M322 63L313 65L329 75Z" fill="#4ba1a1" stroke="#FFFFFF"></path><path d="M235 165L204 234L250 193Z" fill="#2e747f" stroke="#FFFFFF"></path><path d="M396 450L445 477L440 421Z" fill="#3b8a91" stroke="#FFFFFF"></path><path d="M471 450L546 450L475 400Z" fill="#5db9b1" stroke="#FFFFFF"></path><path d="M283 450L445 477L396 450Z" fill="#73d0be" stroke="#FFFFFF"></path><path d="M615 132L553 135L556 190Z" fill="#133544" stroke="#FFFFFF"></path><path d="M553 135L587 103L542 129Z" fill="#2e747f" stroke="#FFFFFF"></path><path d="M489 22L480 82L489 85Z" fill="#2e747f" stroke="#FFFFFF"></path><path d="M489 22L422 33L480 82Z" fill="#00101c" stroke="#FFFFFF"></path><path d="M489 22L489 85L549 47Z" fill="#2e747f" stroke="#FFFFFF"></path><path d="M480 82L422 33L405 128Z" fill="#1b4958" stroke="#FFFFFF"></path><path d="M322 63L324 26L313 65Z" fill="#245e6c" stroke="#FFFFFF"></path><path d="M231 353L253 400L253 374Z" fill="#0c2230" stroke="#FFFFFF"></path><path d="M253 374L253 400L295 404Z" fill="#00101c" stroke="#FFFFFF"></path><path d="M295 404L283 450L396 450Z" fill="#3b8a91" stroke="#FFFFFF"></path><path d="M615 132L589 100L587 103Z" fill="#4ba1a1" stroke="#FFFFFF"></path><path d="M587 103L549 47L509 93Z" fill="#2e747f" stroke="#FFFFFF"></path><path d="M659 171L615 132L556 190Z" fill="#245e6c" stroke="#FFFFFF"></path><path d="M445 477L546 450L471 450Z" fill="#8ce8cb" stroke="#FFFFFF"></path><path d="M642 450L655 335L584 379Z" fill="#4ba1a1" stroke="#FFFFFF"></path><path d="M250 136L222 143L235 165Z" fill="#0c2230" stroke="#FFFFFF"></path><path d="M235 165L187 156L204 234Z" fill="#2e747f" stroke="#FFFFFF"></path><path d="M214 99L222 143L250 136Z" fill="#00101c" stroke="#FFFFFF"></path><path d="M212 305L205 333L240 336Z" fill="#00101c" stroke="#FFFFFF"></path><path d="M231 353L150 384L253 400Z" fill="#5db9b1" stroke="#FFFFFF"></path><path d="M177 346L205 333L212 305Z" fill="#245e6c" stroke="#FFFFFF"></path><path d="M156 195L185 267L204 234Z" fill="#3b8a91" stroke="#FFFFFF"></path><path d="M204 234L185 267L240 245Z" fill="#00101c" stroke="#FFFFFF"></path><path d="M659 171L630 130L615 132Z" fill="#73d0be" stroke="#FFFFFF"></path><path d="M615 132L629 91L589 100Z" fill="#2e747f" stroke="#FFFFFF"></path><path d="M659 171L556 190L630 259Z" fill="#4ba1a1" stroke="#FFFFFF"></path><path d="M276 450L295 404L253 400Z" fill="#133544" stroke="#FFFFFF"></path><path d="M276 450L283 450L295 404Z" fill="#133544" stroke="#FFFFFF"></path><path d="M549 47L587 103L589 100Z" fill="#3b8a91" stroke="#FFFFFF"></path><path d="M549 47L489 85L509 93Z" fill="#5db9b1" stroke="#FFFFFF"></path><path d="M604 56L549 47L589 100Z" fill="#0c2230" stroke="#FFFFFF"></path><path d="M585 450L584 379L567 414Z" fill="#245e6c" stroke="#FFFFFF"></path><path d="M677 261L676 245L630 259Z" fill="#73d0be" stroke="#FFFFFF"></path><path d="M266 450L276 450L253 400Z" fill="#2e747f" stroke="#FFFFFF"></path><path d="M283 450L232 475L445 477Z" fill="#245e6c" stroke="#FFFFFF"></path><path d="M676 245L659 171L630 259Z" fill="#2e747f" stroke="#FFFFFF"></path><path d="M241 450L266 450L253 400Z" fill="#2e747f" stroke="#FFFFFF"></path><path d="M276 450L232 475L283 450Z" fill="#73d0be" stroke="#FFFFFF"></path><path d="M357 0L324 26L329 75Z" fill="#3b8a91" stroke="#FFFFFF"></path><path d="M313 65L229 91L250 136Z" fill="#5db9b1" stroke="#FFFFFF"></path><path d="M357 0L329 75L422 33Z" fill="#00101c" stroke="#FFFFFF"></path><path d="M677 261L630 259L677 311Z" fill="#73d0be" stroke="#FFFFFF"></path><path d="M717 496L585 450L546 450Z" fill="#00101c" stroke="#FFFFFF"></path><path d="M546 450L585 450L567 414Z" fill="#0c2230" stroke="#FFFFFF"></path><path d="M677 311L630 259L635 321Z" fill="#133544" stroke="#FFFFFF"></path><path d="M489 22L434 0L422 33Z" fill="#8ce8cb" stroke="#FFFFFF"></path><path d="M308 16L229 91L313 65Z" fill="#73d0be" stroke="#FFFFFF"></path><path d="M222 143L187 156L235 165Z" fill="#1b4958" stroke="#FFFFFF"></path><path d="M434 0L408 0L422 33Z" fill="#73d0be" stroke="#FFFFFF"></path><path d="M408 0L407 0L422 33Z" fill="#1b4958" stroke="#FFFFFF"></path><path d="M655 335L677 311L635 321Z" fill="#0c2230" stroke="#FFFFFF"></path><path d="M704 388L677 311L655 335Z" fill="#2e747f" stroke="#FFFFFF"></path><path d="M214 99L187 156L222 143Z" fill="#4ba1a1" stroke="#FFFFFF"></path><path d="M648 109L629 91L630 130Z" fill="#0c2230" stroke="#FFFFFF"></path><path d="M630 130L629 91L615 132Z" fill="#8ce8cb" stroke="#FFFFFF"></path><path d="M721 164L677 183L731 196Z" fill="#73d0be" stroke="#FFFFFF"></path><path d="M676 245L677 183L659 171Z" fill="#0c2230" stroke="#FFFFFF"></path><path d="M679 134L648 109L630 130Z" fill="#2e747f" stroke="#FFFFFF"></path><path d="M195 49L214 99L229 91Z" fill="#8ce8cb" stroke="#FFFFFF"></path><path d="M229 91L214 99L250 136Z" fill="#133544" stroke="#FFFFFF"></path><path d="M185 267L177 346L212 305Z" fill="#73d0be" stroke="#FFFFFF"></path><path d="M205 333L177 346L231 353Z" fill="#133544" stroke="#FFFFFF"></path><path d="M143 356L177 346L185 267Z" fill="#5db9b1" stroke="#FFFFFF"></path><path d="M407 0L357 0L422 33Z" fill="#73d0be" stroke="#FFFFFF"></path><path d="M324 26L308 16L313 65Z" fill="#133544" stroke="#FFFFFF"></path><path d="M318 0L308 16L324 26Z" fill="#133544" stroke="#FFFFFF"></path><path d="M679 134L630 130L659 171Z" fill="#4ba1a1" stroke="#FFFFFF"></path><path d="M158 450L241 450L253 400Z" fill="#0c2230" stroke="#FFFFFF"></path><path d="M266 450L232 475L276 450Z" fill="#73d0be" stroke="#FFFFFF"></path><path d="M629 91L604 56L589 100Z" fill="#73d0be" stroke="#FFFFFF"></path><path d="M549 47L512 0L489 22Z" fill="#3b8a91" stroke="#FFFFFF"></path><path d="M489 22L512 0L434 0Z" fill="#73d0be" stroke="#FFFFFF"></path><path d="M697 0L604 56L629 91Z" fill="#1b4958" stroke="#FFFFFF"></path><path d="M543 2L512 0L549 47Z" fill="#3b8a91" stroke="#FFFFFF"></path><path d="M159 179L156 195L187 156Z" fill="#133544" stroke="#FFFFFF"></path><path d="M187 156L156 195L204 234Z" fill="#5db9b1" stroke="#FFFFFF"></path><path d="M119 115L159 179L187 156Z" fill="#2e747f" stroke="#FFFFFF"></path><path d="M357 0L318 0L324 26Z" fill="#3b8a91" stroke="#FFFFFF"></path><path d="M308 16L195 49L229 91Z" fill="#5db9b1" stroke="#FFFFFF"></path><path d="M677 311L704 264L677 261Z" fill="#245e6c" stroke="#FFFFFF"></path><path d="M677 261L704 264L676 245Z" fill="#0c2230" stroke="#FFFFFF"></path><path d="M598 0L543 2L549 47Z" fill="#00101c" stroke="#FFFFFF"></path><path d="M684 138L679 134L659 171Z" fill="#00101c" stroke="#FFFFFF"></path><path d="M648 109L668 100L629 91Z" fill="#2e747f" stroke="#FFFFFF"></path><path d="M684 138L659 171L677 183Z" fill="#4ba1a1" stroke="#FFFFFF"></path><path d="M721 164L684 138L677 183Z" fill="#3b8a91" stroke="#FFFFFF"></path><path d="M679 134L668 100L648 109Z" fill="#0c2230" stroke="#FFFFFF"></path><path d="M693 104L668 100L679 134Z" fill="#0c2230" stroke="#FFFFFF"></path><path d="M604 56L598 0L549 47Z" fill="#8ce8cb" stroke="#FFFFFF"></path><path d="M717 496L642 450L585 450Z" fill="#2e747f" stroke="#FFFFFF"></path><path d="M585 450L642 450L584 379Z" fill="#2e747f" stroke="#FFFFFF"></path><path d="M677 311L736 273L704 264Z" fill="#0c2230" stroke="#FFFFFF"></path><path d="M158 450L232 475L241 450Z" fill="#245e6c" stroke="#FFFFFF"></path><path d="M241 450L232 475L266 450Z" fill="#73d0be" stroke="#FFFFFF"></path><path d="M717 496L647 450L642 450Z" fill="#00101c" stroke="#FFFFFF"></path><path d="M642 450L647 450L655 335Z" fill="#5db9b1" stroke="#FFFFFF"></path><path d="M57 241L143 356L185 267Z" fill="#133544" stroke="#FFFFFF"></path><path d="M177 346L150 384L231 353Z" fill="#0c2230" stroke="#FFFFFF"></path><path d="M717 496L655 450L647 450Z" fill="#73d0be" stroke="#FFFFFF"></path><path d="M699 413L704 388L655 335Z" fill="#8ce8cb" stroke="#FFFFFF"></path><path d="M143 356L150 384L177 346Z" fill="#133544" stroke="#FFFFFF"></path><path d="M729 105L693 104L684 138Z" fill="#8ce8cb" stroke="#FFFFFF"></path><path d="M684 138L693 104L679 134Z" fill="#73d0be" stroke="#FFFFFF"></path><path d="M609 0L598 0L604 56Z" fill="#2e747f" stroke="#FFFFFF"></path><path d="M699 413L655 335L647 450Z" fill="#245e6c" stroke="#FFFFFF"></path><path d="M609 0L604 56L697 0Z" fill="#2e747f" stroke="#FFFFFF"></path><path d="M543 2L598 0L512 0Z" fill="#4ba1a1" stroke="#FFFFFF"></path><path d="M202 0L195 49L308 16Z" fill="#4ba1a1" stroke="#FFFFFF"></path><path d="M214 99L155 86L187 156Z" fill="#3b8a91" stroke="#FFFFFF"></path><path d="M731 196L676 245L704 264Z" fill="#133544" stroke="#FFFFFF"></path><path d="M731 196L677 183L676 245Z" fill="#4ba1a1" stroke="#FFFFFF"></path><path d="M655 450L699 413L647 450Z" fill="#245e6c" stroke="#FFFFFF"></path><path d="M717 496L668 450L655 450Z" fill="#8ce8cb" stroke="#FFFFFF"></path><path d="M755 287L736 273L677 311Z" fill="#5db9b1" stroke="#FFFFFF"></path><path d="M736 273L731 196L704 264Z" fill="#0c2230" stroke="#FFFFFF"></path><path d="M697 0L629 91L668 100Z" fill="#2e747f" stroke="#FFFFFF"></path><path d="M668 450L699 413L655 450Z" fill="#1b4958" stroke="#FFFFFF"></path><path d="M762 331L755 287L677 311Z" fill="#5db9b1" stroke="#FFFFFF"></path><path d="M784 190L736 190L731 196Z" fill="#73d0be" stroke="#FFFFFF"></path><path d="M731 196L736 190L721 164Z" fill="#5db9b1" stroke="#FFFFFF"></path><path d="M729 105L715 81L693 104Z" fill="#0c2230" stroke="#FFFFFF"></path><path d="M195 49L155 86L214 99Z" fill="#00101c" stroke="#FFFFFF"></path><path d="M159 179L91 173L156 195Z" fill="#0c2230" stroke="#FFFFFF"></path><path d="M156 195L57 241L185 267Z" fill="#0c2230" stroke="#FFFFFF"></path><path d="M126 421L158 450L150 384Z" fill="#245e6c" stroke="#FFFFFF"></path><path d="M150 384L158 450L253 400Z" fill="#4ba1a1" stroke="#FFFFFF"></path><path d="M753 358L677 311L704 388Z" fill="#0c2230" stroke="#FFFFFF"></path><path d="M790 257L784 190L731 196Z" fill="#5db9b1" stroke="#FFFFFF"></path><path d="M108 116L119 115L116 86Z" fill="#1b4958" stroke="#FFFFFF"></path><path d="M155 86L119 115L187 156Z" fill="#133544" stroke="#FFFFFF"></path><path d="M729 105L684 138L721 164Z" fill="#0c2230" stroke="#FFFFFF"></path><path d="M693 104L715 81L668 100Z" fill="#245e6c" stroke="#FFFFFF"></path><path d="M729 105L721 164L781 108Z" fill="#133544" stroke="#FFFFFF"></path><path d="M784 190L721 164L736 190Z" fill="#73d0be" stroke="#FFFFFF"></path><path d="M210 -11L202 0L308 16Z" fill="#4ba1a1" stroke="#FFFFFF"></path><path d="M141 0L116 86L155 86Z" fill="#1b4958" stroke="#FFFFFF"></path><path d="M61 365L150 384L143 356Z" fill="#133544" stroke="#FFFFFF"></path><path d="M61 365L126 421L150 384Z" fill="#0c2230" stroke="#FFFFFF"></path><path d="M192 -42L210 -11L318 0Z" fill="#00101c" stroke="#FFFFFF"></path><path d="M318 0L210 -11L308 16Z" fill="#00101c" stroke="#FFFFFF"></path><path d="M192 -42L318 0L357 0Z" fill="#8ce8cb" stroke="#FFFFFF"></path><path d="M192 -42L357 0L407 0Z" fill="#8ce8cb" stroke="#FFFFFF"></path><path d="M192 -42L407 0L408 0Z" fill="#73d0be" stroke="#FFFFFF"></path><path d="M192 -42L408 0L434 0Z" fill="#3b8a91" stroke="#FFFFFF"></path><path d="M192 -42L434 0L512 0Z" fill="#3b8a91" stroke="#FFFFFF"></path><path d="M192 -42L512 0L761 -25Z" fill="#4ba1a1" stroke="#FFFFFF"></path><path d="M760 374L753 358L704 388Z" fill="#0c2230" stroke="#FFFFFF"></path><path d="M760 374L704 388L699 413Z" fill="#0c2230" stroke="#FFFFFF"></path><path d="M119 115L91 173L159 179Z" fill="#5db9b1" stroke="#FFFFFF"></path><path d="M753 358L762 331L677 311Z" fill="#2e747f" stroke="#FFFFFF"></path><path d="M790 257L731 196L736 273Z" fill="#245e6c" stroke="#FFFFFF"></path><path d="M116 86L119 115L155 86Z" fill="#1b4958" stroke="#FFFFFF"></path><path d="M119 115L108 116L91 173Z" fill="#245e6c" stroke="#FFFFFF"></path><path d="M155 86L195 49L141 0Z" fill="#4ba1a1" stroke="#FFFFFF"></path><path d="M790 330L771 320L762 331Z" fill="#245e6c" stroke="#FFFFFF"></path><path d="M762 331L771 320L755 287Z" fill="#245e6c" stroke="#FFFFFF"></path><path d="M180 0L195 49L202 0Z" fill="#133544" stroke="#FFFFFF"></path><path d="M56 164L57 241L91 173Z" fill="#3b8a91" stroke="#FFFFFF"></path><path d="M210 -11L180 0L202 0Z" fill="#3b8a91" stroke="#FFFFFF"></path><path d="M741 450L760 374L699 413Z" fill="#00101c" stroke="#FFFFFF"></path><path d="M753 358L790 330L762 331Z" fill="#1b4958" stroke="#FFFFFF"></path><path d="M790 257L736 273L755 287Z" fill="#3b8a91" stroke="#FFFFFF"></path><path d="M740 35L697 0L715 81Z" fill="#1b4958" stroke="#FFFFFF"></path><path d="M804 269L755 287L771 320Z" fill="#73d0be" stroke="#FFFFFF"></path><path d="M804 269L790 257L755 287Z" fill="#1b4958" stroke="#FFFFFF"></path><path d="M180 0L164 0L195 49Z" fill="#133544" stroke="#FFFFFF"></path><path d="M192 -42L164 0L180 0Z" fill="#4ba1a1" stroke="#FFFFFF"></path><path d="M56 164L91 173L108 116Z" fill="#2e747f" stroke="#FFFFFF"></path><path d="M91 173L57 241L156 195Z" fill="#245e6c" stroke="#FFFFFF"></path><path d="M668 450L741 450L699 413Z" fill="#1b4958" stroke="#FFFFFF"></path><path d="M760 374L790 330L753 358Z" fill="#4ba1a1" stroke="#FFFFFF"></path><path d="M717 496L741 450L668 450Z" fill="#2e747f" stroke="#FFFFFF"></path><path d="M818 395L790 330L760 374Z" fill="#00101c" stroke="#FFFFFF"></path><path d="M740 35L715 81L729 105Z" fill="#245e6c" stroke="#FFFFFF"></path><path d="M715 81L697 0L668 100Z" fill="#0c2230" stroke="#FFFFFF"></path><path d="M761 -25L512 0L598 0Z" fill="#1b4958" stroke="#FFFFFF"></path><path d="M41 388L103 450L126 421Z" fill="#245e6c" stroke="#FFFFFF"></path><path d="M126 421L103 450L158 450Z" fill="#0c2230" stroke="#FFFFFF"></path><path d="M158 450L103 485L232 475Z" fill="#4ba1a1" stroke="#FFFFFF"></path><path d="M445 477L717 496L546 450Z" fill="#5db9b1" stroke="#FFFFFF"></path><path d="M103 485L717 496L445 477Z" fill="#73d0be" stroke="#FFFFFF"></path><path d="M761 -25L598 0L609 0Z" fill="#1b4958" stroke="#FFFFFF"></path><path d="M210 -11L192 -42L180 0Z" fill="#2e747f" stroke="#FFFFFF"></path><path d="M790 330L804 269L771 320Z" fill="#133544" stroke="#FFFFFF"></path><path d="M790 257L822 202L784 190Z" fill="#5db9b1" stroke="#FFFFFF"></path><path d="M38 304L61 365L143 356Z" fill="#2e747f" stroke="#FFFFFF"></path><path d="M19 97L56 164L108 116Z" fill="#0c2230" stroke="#FFFFFF"></path><path d="M19 97L108 116L116 86Z" fill="#5db9b1" stroke="#FFFFFF"></path><path d="M192 -42L141 0L164 0Z" fill="#8ce8cb" stroke="#FFFFFF"></path><path d="M164 0L141 0L195 49Z" fill="#00101c" stroke="#FFFFFF"></path><path d="M781 108L740 35L729 105Z" fill="#245e6c" stroke="#FFFFFF"></path><path d="M784 190L781 108L721 164Z" fill="#4ba1a1" stroke="#FFFFFF"></path><path d="M816 149L781 108L784 190Z" fill="#0c2230" stroke="#FFFFFF"></path><path d="M57 241L38 304L143 356Z" fill="#133544" stroke="#FFFFFF"></path><path d="M-8 235L38 304L57 241Z" fill="#8ce8cb" stroke="#FFFFFF"></path><path d="M740 -3L723 0L740 35Z" fill="#245e6c" stroke="#FFFFFF"></path><path d="M740 35L723 0L697 0Z" fill="#245e6c" stroke="#FFFFFF"></path><path d="M697 0L761 -25L609 0Z" fill="#3b8a91" stroke="#FFFFFF"></path><path d="M22 450L103 485L103 450Z" fill="#2e747f" stroke="#FFFFFF"></path><path d="M103 450L103 485L158 450Z" fill="#1b4958" stroke="#FFFFFF"></path><path d="M232 475L103 485L445 477Z" fill="#00101c" stroke="#FFFFFF"></path><path d="M41 388L126 421L61 365Z" fill="#133544" stroke="#FFFFFF"></path><path d="M13 33L87 41L40 -26Z" fill="#5db9b1" stroke="#FFFFFF"></path><path d="M141 0L87 41L116 86Z" fill="#8ce8cb" stroke="#FFFFFF"></path><path d="M831 194L822 202L844 232Z" fill="#0c2230" stroke="#FFFFFF"></path><path d="M844 232L822 202L790 257Z" fill="#5db9b1" stroke="#FFFFFF"></path><path d="M821 159L816 149L784 190Z" fill="#2e747f" stroke="#FFFFFF"></path><path d="M768 0L740 -3L740 35Z" fill="#8ce8cb" stroke="#FFFFFF"></path><path d="M23 343L30 350L38 304Z" fill="#73d0be" stroke="#FFFFFF"></path><path d="M38 304L30 350L61 365Z" fill="#0c2230" stroke="#FFFFFF"></path><path d="M30 350L41 388L61 365Z" fill="#2e747f" stroke="#FFFFFF"></path><path d="M822 202L821 159L784 190Z" fill="#0c2230" stroke="#FFFFFF"></path><path d="M799 76L740 35L781 108Z" fill="#5db9b1" stroke="#FFFFFF"></path><path d="M723 0L761 -25L697 0Z" fill="#5db9b1" stroke="#FFFFFF"></path><path d="M844 232L790 257L804 269Z" fill="#245e6c" stroke="#FFFFFF"></path><path d="M822 202L831 194L821 159Z" fill="#00101c" stroke="#FFFFFF"></path><path d="M717 496L798 429L741 450Z" fill="#73d0be" stroke="#FFFFFF"></path><path d="M741 450L798 429L760 374Z" fill="#245e6c" stroke="#FFFFFF"></path><path d="M900 248L844 232L901 284Z" fill="#8ce8cb" stroke="#FFFFFF"></path><path d="M-8 235L23 343L38 304Z" fill="#00101c" stroke="#FFFFFF"></path><path d="M30 350L0 369L41 388Z" fill="#1b4958" stroke="#FFFFFF"></path><path d="M816 149L799 76L781 108Z" fill="#3b8a91" stroke="#FFFFFF"></path><path d="M819 0L799 76L897 42Z" fill="#73d0be" stroke="#FFFFFF"></path><path d="M799 76L816 149L900 95Z" fill="#2e747f" stroke="#FFFFFF"></path><path d="M798 429L818 395L760 374Z" fill="#4ba1a1" stroke="#FFFFFF"></path><path d="M844 232L804 269L901 284Z" fill="#2e747f" stroke="#FFFFFF"></path><path d="M831 194L843 191L821 159Z" fill="#0c2230" stroke="#FFFFFF"></path><path d="M844 232L843 191L831 194Z" fill="#73d0be" stroke="#FFFFFF"></path><path d="M0 173L0 210L56 164Z" fill="#00101c" stroke="#FFFFFF"></path><path d="M56 164L0 210L57 241Z" fill="#5db9b1" stroke="#FFFFFF"></path><path d="M799 76L768 0L740 35Z" fill="#4ba1a1" stroke="#FFFFFF"></path><path d="M0 143L0 173L56 164Z" fill="#00101c" stroke="#FFFFFF"></path><path d="M-41 223L-8 235L0 210Z" fill="#1b4958" stroke="#FFFFFF"></path><path d="M0 210L-8 235L57 241Z" fill="#133544" stroke="#FFFFFF"></path><path d="M87 41L19 97L116 86Z" fill="#73d0be" stroke="#FFFFFF"></path><path d="M819 0L768 0L799 76Z" fill="#245e6c" stroke="#FFFFFF"></path><path d="M819 0L761 -25L768 0Z" fill="#2e747f" stroke="#FFFFFF"></path><path d="M768 0L761 -25L740 -3Z" fill="#133544" stroke="#FFFFFF"></path><path d="M740 -3L761 -25L723 0Z" fill="#00101c" stroke="#FFFFFF"></path><path d="M0 131L0 143L56 164Z" fill="#4ba1a1" stroke="#FFFFFF"></path><path d="M-51 202L-41 223L0 210Z" fill="#4ba1a1" stroke="#FFFFFF"></path><path d="M-8 235L0 369L23 343Z" fill="#5db9b1" stroke="#FFFFFF"></path><path d="M23 343L0 369L30 350Z" fill="#133544" stroke="#FFFFFF"></path><path d="M41 388L22 450L103 450Z" fill="#00101c" stroke="#FFFFFF"></path><path d="M0 143L-4 143L0 173Z" fill="#3b8a91" stroke="#FFFFFF"></path><path d="M19 97L0 131L56 164Z" fill="#5db9b1" stroke="#FFFFFF"></path><path d="M-41 223L0 381L0 369Z" fill="#8ce8cb" stroke="#FFFFFF"></path><path d="M0 369L0 381L41 388Z" fill="#1b4958" stroke="#FFFFFF"></path><path d="M0 131L-4 143L0 143Z" fill="#245e6c" stroke="#FFFFFF"></path><path d="M0 411L22 450L41 388Z" fill="#5db9b1" stroke="#FFFFFF"></path><path d="M19 97L0 115L0 131Z" fill="#2e747f" stroke="#FFFFFF"></path><path d="M0 131L0 115L-4 143Z" fill="#4ba1a1" stroke="#FFFFFF"></path><path d="M13 33L0 102L19 97Z" fill="#8ce8cb" stroke="#FFFFFF"></path><path d="M19 97L0 102L0 115Z" fill="#73d0be" stroke="#FFFFFF"></path><path d="M0 115L-51 202L-4 143Z" fill="#73d0be" stroke="#FFFFFF"></path><path d="M13 33L19 97L87 41Z" fill="#1b4958" stroke="#FFFFFF"></path><path d="M0 381L0 411L41 388Z" fill="#4ba1a1" stroke="#FFFFFF"></path><path d="M-9 450L0 411L0 381Z" fill="#4ba1a1" stroke="#FFFFFF"></path><path d="M-51 202L0 210L0 173Z" fill="#0c2230" stroke="#FFFFFF"></path><path d="M-8 235L-41 223L0 369Z" fill="#5db9b1" stroke="#FFFFFF"></path><path d="M-51 202L0 173L-4 143Z" fill="#133544" stroke="#FFFFFF"></path><path d="M-9 450L0 450L0 411Z" fill="#133544" stroke="#FFFFFF"></path><path d="M0 411L0 450L22 450Z" fill="#1b4958" stroke="#FFFFFF"></path><path d="M22 450L0 450L103 485Z" fill="#245e6c" stroke="#FFFFFF"></path><path d="M40 -26L87 41L141 0Z" fill="#245e6c" stroke="#FFFFFF"></path><path d="M0 102L-51 202L0 115Z" fill="#1b4958" stroke="#FFFFFF"></path><path d="M900 138L816 149L821 159Z" fill="#5db9b1" stroke="#FFFFFF"></path><path d="M844 232L900 174L843 191Z" fill="#3b8a91" stroke="#FFFFFF"></path><path d="M843 191L900 149L821 159Z" fill="#245e6c" stroke="#FFFFFF"></path><path d="M901 284L804 269L900 311Z" fill="#00101c" stroke="#FFFFFF"></path><path d="M-41 223L-9 450L0 381Z" fill="#00101c" stroke="#FFFFFF"></path><path d="M0 450L-9 450L103 485Z" fill="#8ce8cb" stroke="#FFFFFF"></path><path d="M900 311L790 330L900 335Z" fill="#5db9b1" stroke="#FFFFFF"></path><path d="M900 311L804 269L790 330Z" fill="#2e747f" stroke="#FFFFFF"></path><path d="M41 -30L40 -26L141 0Z" fill="#133544" stroke="#FFFFFF"></path><path d="M900 335L790 330L818 395Z" fill="#1b4958" stroke="#FFFFFF"></path><path d="M192 -42L41 -30L141 0Z" fill="#133544" stroke="#FFFFFF"></path><path d="M40 -26L0 0L13 33Z" fill="#00101c" stroke="#FFFFFF"></path><path d="M-31 0L-51 202L0 102Z" fill="#2e747f" stroke="#FFFFFF"></path><path d="M-41 223L-51 202L-9 450Z" fill="#5db9b1" stroke="#FFFFFF"></path><path d="M876 450L900 335L818 395Z" fill="#1b4958" stroke="#FFFFFF"></path><path d="M900 311L927 210L901 284Z" fill="#73d0be" stroke="#FFFFFF"></path><path d="M927 210L900 174L900 248Z" fill="#245e6c" stroke="#FFFFFF"></path><path d="M900 248L900 174L844 232Z" fill="#2e747f" stroke="#FFFFFF"></path><path d="M927 210L900 149L900 174Z" fill="#0c2230" stroke="#FFFFFF"></path><path d="M900 174L900 149L843 191Z" fill="#1b4958" stroke="#FFFFFF"></path><path d="M927 210L900 138L900 149Z" fill="#133544" stroke="#FFFFFF"></path><path d="M900 149L900 138L821 159Z" fill="#00101c" stroke="#FFFFFF"></path><path d="M717 496L876 450L798 429Z" fill="#73d0be" stroke="#FFFFFF"></path><path d="M798 429L876 450L818 395Z" fill="#1b4958" stroke="#FFFFFF"></path><path d="M41 -30L0 0L40 -26Z" fill="#0c2230" stroke="#FFFFFF"></path><path d="M13 33L-31 0L0 102Z" fill="#245e6c" stroke="#FFFFFF"></path><path d="M900 138L900 95L816 149Z" fill="#4ba1a1" stroke="#FFFFFF"></path><path d="M927 210L900 95L900 138Z" fill="#3b8a91" stroke="#FFFFFF"></path><path d="M900 335L927 210L900 311Z" fill="#245e6c" stroke="#FFFFFF"></path><path d="M901 284L927 210L900 248Z" fill="#8ce8cb" stroke="#FFFFFF"></path><path d="M928 450L927 210L900 335Z" fill="#73d0be" stroke="#FFFFFF"></path><path d="M908 61L900 78L900 95Z" fill="#5db9b1" stroke="#FFFFFF"></path><path d="M900 95L900 78L799 76Z" fill="#00101c" stroke="#FFFFFF"></path><path d="M900 450L900 447L876 450Z" fill="#1b4958" stroke="#FFFFFF"></path><path d="M876 450L900 447L900 335Z" fill="#4ba1a1" stroke="#FFFFFF"></path><path d="M717 496L900 450L876 450Z" fill="#245e6c" stroke="#FFFFFF"></path><path d="M900 447L928 450L900 335Z" fill="#4ba1a1" stroke="#FFFFFF"></path><path d="M908 61L897 42L900 78Z" fill="#73d0be" stroke="#FFFFFF"></path><path d="M900 78L897 42L799 76Z" fill="#245e6c" stroke="#FFFFFF"></path><path d="M927 210L908 61L900 95Z" fill="#4ba1a1" stroke="#FFFFFF"></path><path d="M41 -30L-31 0L0 0Z" fill="#0c2230" stroke="#FFFFFF"></path><path d="M0 0L-31 0L13 33Z" fill="#00101c" stroke="#FFFFFF"></path><path d="M900 0L889 0L897 42Z" fill="#133544" stroke="#FFFFFF"></path><path d="M897 42L889 0L819 0Z" fill="#133544" stroke="#FFFFFF"></path><path d="M819 0L887 -9L761 -25Z" fill="#5db9b1" stroke="#FFFFFF"></path><path d="M900 0L887 -9L889 0Z" fill="#133544" stroke="#FFFFFF"></path><path d="M889 0L887 -9L819 0Z" fill="#0c2230" stroke="#FFFFFF"></path><path d="M717 496L928 450L900 450Z" fill="#5db9b1" stroke="#FFFFFF"></path><path d="M900 450L928 450L900 447Z" fill="#5db9b1" stroke="#FFFFFF"></path><path d="M908 61L900 0L897 42Z" fill="#4ba1a1" stroke="#FFFFFF"></path></g></svg>